<svg width="510" height="511" viewBox="0 0 510 511" fill="none" xmlns="http://www.w3.org/2000/svg">
<g clip-path="url(#clip0)">
<path d="M256 0C115.39 0 0 115.39 0 256C0 396.61 115.39 512 256 512C396.61 512 512 396.61 512 256C512 115.39 396.61 0 256 0Z" fill="#3282B4"/>
<path d="M67.5683 228.159C48.2403 228.208 48.0477 273.045 67.5683 273C87.0889 272.955 426.152 272.977 445.578 273C465.004 273.023 464.61 228.18 445.578 228.159H67.5683ZM67.5683 228.159C105.369 1.46274 400.217 6.44511 445.578 228.159H67.5683ZM67.5683 228.159H445.578H67.5683Z" stroke="white" stroke-width="20"/>
<path d="M81 274C81 504.818 431 512.484 431 274" stroke="white" stroke-width="20"/>
<path d="M170 166C181.598 166 191 156.598 191 145C191 133.402 181.598 124 170 124C158.402 124 149 133.402 149 145C149 156.598 158.402 166 170 166Z" fill="white"/>
<path d="M345 166C356.598 166 366 156.598 366 145C366 133.402 356.598 124 345 124C333.402 124 324 133.402 324 145C324 156.598 333.402 166 345 166Z" fill="white"/>
<path d="M235 179H280" stroke="white" stroke-width="20" stroke-linecap="round"/>
</g>
<defs>
<clipPath id="clip0">
<rect width="510" height="511" fill="white"/>
</clipPath>
</defs>
</svg>
