<svg width="512" height="512" viewBox="0 0 512 512" fill="none" xmlns="http://www.w3.org/2000/svg">
  <path
    d="M140.87 121.172L189.355 169.861L279.199 79.5806L230.745 30.9088C224.847 25.0005 216.377 22 209 22C203.841 22 194.786 23.4229 187.44 30.816L140.778 77.68C133.417 85.0576 132 94.152 132 99.3333C132 106.742 134.988 115.249 140.87 121.172Z"
    fill="#D4D4D8"
  />
  <path
    d="M187.425 477.184L140.778 430.32C133.417 422.942 132 413.848 132 408.667C132 401.258 134.988 392.751 140.87 386.828L149.502 378.16L239.351 468.445L230.745 477.091C224.847 482.999 216.377 486 209 486C203.841 486 194.786 484.577 187.425 477.184Z"
    fill="#D4D4D8"
  />
  <path
    d="M239.351 468.445L149.502 378.16L273.141 254L189.355 169.861L279.199 79.5806L431.037 232.099C436.581 237.683 440 245.462 440 254C440 262.599 436.381 270.487 431.006 275.901L239.351 468.445Z"
    fill="#17C964"
  />
  <path
    d="M209 21C216.616 21 225.349 24.0885 231.452 30.2021L231.453 30.2031L279.908 78.875L431.746 231.394L431.747 231.395C437.473 237.161 441 245.192 441 254C441 262.877 437.267 271.015 431.716 276.605L431.715 276.606L240.061 469.15L231.453 477.797L231.452 477.798C225.349 483.912 216.616 487 209 487C203.687 487 194.331 485.538 186.716 477.89L140.069 431.025V431.024C132.455 423.393 131 414 131 408.667C131 401.022 134.074 392.253 140.161 386.123L140.162 386.122L148.794 377.454L271.729 253.999L188.646 170.566L140.162 121.878L140.161 121.877C134.074 115.747 131 106.978 131 99.333C131 93.9996 132.455 84.6056 140.07 76.9736L186.731 30.1104C194.331 22.4621 203.687 21 209 21Z"
    stroke="#434343"
    stroke-opacity="0.75"
    stroke-width="2"
  />
</svg>
