<svg width="64" height="64" viewBox="0 0 64 64" fill="none" xmlns="http://www.w3.org/2000/svg">
  <g clip-path="url(#clip0_1383_13)">
    <rect width="64" height="64" rx="16" fill="#121212" />
    <path
      d="M48.1614 30.0229C49.333 31.1945 49.333 33.094 48.1614 34.2655L27.2624 55.1645C26.0908 56.3358 24.1912 56.336 23.0198 55.1645L18.0438 50.1886C16.8723 49.0171 16.8725 47.1175 18.0438 45.9459L31.8489 32.1408L22.4998 22.7916C22.1093 22.4011 22.1094 21.7679 22.4998 21.3774L30.3042 13.573C30.6947 13.1825 31.3279 13.1825 31.7184 13.573L41.0676 22.9221L41.0641 22.9256L48.1614 30.0229Z"
      fill="url(#paint0_linear_1383_13)"
    />
    <g filter="url(#filter0_i_1383_13)">
      <path
        d="M17.4678 17.7661C17.0773 17.3755 17.0773 16.7424 17.4678 16.3519L25.2722 8.54749C25.6627 8.15696 26.2959 8.15696 26.6864 8.54749L29.4625 11.3235C29.853 11.7141 29.853 12.3472 29.4625 12.7378L21.6581 20.5421C21.2676 20.9326 20.6344 20.9326 20.2439 20.5421L17.4678 17.7661Z"
        fill="#ECEDEE"
      />
    </g>
    <path
      d="M18.3067 15.2519C17.9162 14.8614 17.9162 14.2282 18.3067 13.8377L23.5969 8.54749C23.9874 8.15696 24.6206 8.15696 25.0111 8.54749L25.1421 8.67843L18.4377 15.3829L18.3067 15.2519Z"
      fill="#ECEDEE"
    />
  </g>
  <defs>
    <filter
      id="filter0_i_1383_13"
      x="17.1748"
      y="8.25464"
      width="12.5801"
      height="12.5803"
      filterUnits="userSpaceOnUse"
      color-interpolation-filters="sRGB"
    >
      <feFlood flood-opacity="0" result="BackgroundImageFix" />
      <feBlend mode="normal" in="SourceGraphic" in2="BackgroundImageFix" result="shape" />
      <feColorMatrix
        in="SourceAlpha"
        type="matrix"
        values="0 0 0 0 0 0 0 0 0 0 0 0 0 0 0 0 0 0 127 0"
        result="hardAlpha"
      />
      <feOffset />
      <feGaussianBlur stdDeviation="2" />
      <feComposite in2="hardAlpha" operator="arithmetic" k2="-1" k3="1" />
      <feColorMatrix type="matrix" values="0 0 0 0 0 0 0 0 0 0 0 0 0 0 0 0 0 0 0.25 0" />
      <feBlend mode="normal" in2="shape" result="effect1_innerShadow_1383_13" />
    </filter>
    <linearGradient
      id="paint0_linear_1383_13"
      x1="29.3577"
      y1="11.9036"
      x2="30.5323"
      y2="52.5988"
      gradientUnits="userSpaceOnUse"
    >
      <stop stop-color="#17C964" />
      <stop offset="0.8" stop-color="#17C964" stop-opacity="0.4" />
    </linearGradient>
    <clipPath id="clip0_1383_13">
      <rect width="64" height="64" fill="white" />
    </clipPath>
  </defs>
</svg>
