<svg width="512" height="512" viewBox="0 0 512 512" fill="none" xmlns="http://www.w3.org/2000/svg">
<path d="M124.035 135.554L167.134 178.7L248.52 97.1751L205.447 54.0448C200.105 48.7095 192.432 46 185.75 46C181.077 46 172.874 47.2849 166.22 53.961L123.952 96.28C117.283 102.942 116 111.154 116 115.833C116 122.523 118.706 130.205 124.035 135.554Z" fill="#F5F5F5"/>
<path d="M166.206 457.039L123.952 414.72C117.283 408.058 116 399.845 116 395.167C116 388.477 118.706 380.795 124.035 375.446L131.034 368.439L212.424 449.968L205.447 456.955C200.105 462.29 192.432 465 185.75 465C181.077 465 172.874 463.715 166.206 457.039Z" fill="#F5F5F5"/>
<path d="M213.244 449.147L131.854 367.618L243.852 255.5L167.955 179.521L249.34 97.9962L386.881 235.723C391.903 240.765 395 247.79 395 255.5C395 263.265 391.722 270.388 386.853 275.277L213.244 449.147Z" fill="#99C794"/>
</svg>
