<svg width="512" height="512" viewBox="0 0 512 512" fill="none" xmlns="http://www.w3.org/2000/svg">
<path d="M123.122 134.623L167.513 179.114L249.773 96.6167L205.409 52.1408C200.009 46.7419 192.254 44 185.5 44C180.776 44 172.486 45.3003 165.76 52.056L123.037 94.88C116.297 101.622 115 109.932 115 114.667C115 121.437 117.735 129.21 123.122 134.623Z" fill="#E5EDE6"/>
<path d="M165.746 459.944L123.037 417.12C116.297 410.378 115 402.068 115 397.333C115 390.564 117.735 382.79 123.122 377.377L131.025 369.456L213.289 451.958L205.409 459.859C200.009 465.258 192.254 468 185.5 468C180.776 468 172.486 466.7 165.746 459.944Z" fill="#E5EDE6"/>
<path d="M213.289 451.958L131.025 369.456L244.226 256L167.513 179.114L249.773 96.6167L388.794 235.987C393.87 241.089 397 248.198 397 256C397 263.858 393.687 271.066 388.766 276.013L213.289 451.958Z" fill="#17C964"/>
<path d="M130.118 410.058L130.109 410.05C125.913 405.853 125 400.543 125 397.333C125 392.94 126.869 387.792 130.206 384.435C130.207 384.434 130.209 384.432 130.21 384.431L251.305 263.063L258.353 256L251.305 248.937L130.21 127.569C130.209 127.568 130.207 127.566 130.205 127.565C126.869 124.208 125 119.06 125 114.667C125 111.457 125.913 106.147 130.109 101.95L130.116 101.943L172.839 59.1187L172.847 59.1113C177.029 54.91 182.313 54 185.5 54C189.863 54 194.988 55.8653 198.335 59.2086C198.336 59.21 198.338 59.2114 198.339 59.2128L381.705 243.04C381.705 243.041 381.706 243.042 381.707 243.043C384.963 246.317 387 250.907 387 256C387 261.071 384.837 265.779 381.683 268.953C381.681 268.956 381.678 268.958 381.676 268.96L198.339 452.787C198.339 452.788 198.338 452.788 198.338 452.789C194.991 456.134 189.865 458 185.5 458C182.317 458 177.026 457.091 172.826 452.882C172.826 452.882 172.826 452.882 172.825 452.881L130.118 410.058Z" stroke="black" stroke-opacity="0.2" stroke-width="20"/>
</svg>
