<svg width="512" height="512" viewBox="0 0 512 512" fill="none" xmlns="http://www.w3.org/2000/svg">
<path d="M147.461 353.338L235.301 441.178L218.598 457.882C210.787 465.692 198.124 465.692 190.313 457.882L130.758 398.326C122.947 390.515 122.947 377.852 130.758 370.041L147.461 353.338Z" fill="#E5EDE6"/>
<path d="M205.991 80.2117C212.132 74.0709 222.087 74.071 228.228 80.2117C228.228 80.2117 390.296 242.279 398.106 250.09C405.917 257.9 405.917 270.563 398.106 278.374C390.296 286.184 324.408 352.072 324.408 352.072L324.407 352.071L235.301 441.178L147.461 353.338C147.461 353.338 207.901 308.911 207.748 260.571C207.596 212.231 140.388 168.051 140.388 168.051C134.248 161.911 134.248 151.955 140.388 145.814L205.991 80.2117Z" fill="#17C964"/>
<path d="M113.858 110.565C106.047 102.754 106.047 90.0911 113.858 82.2806L142.281 53.8579C150.091 46.0474 162.754 46.0474 170.565 53.8579L201.455 84.7477L144.748 141.455L113.858 110.565Z" fill="#E5EDE6"/>
<path d="M135.917 47.4941C147.242 36.169 165.604 36.169 176.929 47.4941L201.549 72.1143C211.259 64.2315 225.553 64.8097 234.592 73.8477L228.229 80.2119C234.397 74.0436 234.587 73.8543 234.594 73.8496L234.6 73.8555C234.605 73.8604 234.612 73.8673 234.622 73.877L235.058 74.3125C235.365 74.6194 235.82 75.0755 236.414 75.6699L260.037 99.293C275.353 114.609 295.856 135.111 316.603 155.857C358.095 197.35 400.563 239.819 404.47 243.726C415.795 255.051 415.795 273.412 404.47 284.737C400.565 288.643 382.141 307.067 364.692 324.516C355.968 333.24 347.487 341.72 341.188 348.019C338.039 351.168 335.435 353.773 333.618 355.59L330.961 358.247C330.899 358.309 330.851 358.356 330.819 358.388C330.804 358.403 330.792 358.416 330.784 358.424C330.78 358.428 330.776 358.431 330.774 358.433C330.773 358.434 330.773 358.435 330.772 358.436L324.408 352.072L330.771 358.436L324.408 364.8L324.406 364.798L241.665 447.542L224.962 464.245C213.637 475.57 195.274 475.57 183.949 464.245L124.394 404.689C113.068 393.364 113.069 375.003 124.394 363.678L141.097 346.974L141.58 346.491L142.126 346.09L142.127 346.089C142.13 346.087 142.135 346.083 142.145 346.076C142.164 346.062 142.196 346.037 142.243 346.002C142.337 345.932 142.486 345.82 142.686 345.668C143.085 345.363 143.69 344.897 144.469 344.28C146.028 343.045 148.282 341.208 151 338.847C156.449 334.113 163.693 327.333 170.905 319.137C185.678 302.349 198.813 281.311 198.748 260.6C198.684 240.226 184.178 219.342 167.598 202.498C159.541 194.314 151.455 187.545 145.37 182.817C142.335 180.46 139.817 178.623 138.073 177.388C137.202 176.77 136.525 176.303 136.076 175.997C135.852 175.844 135.684 175.731 135.577 175.66C135.524 175.625 135.486 175.6 135.464 175.585C135.455 175.579 135.448 175.574 135.444 175.571L134.676 175.066L134.024 174.415C125.047 165.437 124.418 151.275 132.135 141.569L107.494 116.929C96.169 105.604 96.169 87.2422 107.494 75.917L135.917 47.4941Z" stroke="black" stroke-opacity="0.2" stroke-width="18"/>
</svg>
