<svg width="510" height="511" viewBox="0 0 510 511" fill="none" xmlns="http://www.w3.org/2000/svg">
<g clip-path="url(#clip0)">
<path d="M256 0C115.39 0 0 115.39 0 256C0 396.61 115.39 512 256 512C396.61 512 512 396.61 512 256C512 115.39 396.61 0 256 0Z" fill="#3282B4"/>
<path d="M165.164 135.666C167.834 135.666 169.998 133.502 169.998 130.832C169.998 128.162 167.834 125.998 165.164 125.998C162.494 125.998 160.33 128.162 160.33 130.832C160.33 133.502 162.494 135.666 165.164 135.666Z" fill="white"/>
<path d="M203.836 135.666C206.506 135.666 208.67 133.502 208.67 130.832C208.67 128.162 206.506 125.998 203.836 125.998C201.166 125.998 199.002 128.162 199.002 130.832C199.002 133.502 201.166 135.666 203.836 135.666Z" fill="white"/>
<path d="M248.664 164.67H247.51C248.047 163.157 248.342 161.53 248.342 159.836C248.342 153.477 244.226 148.065 238.52 146.114C236.563 120.279 216.064 99.546 190.334 97.2162V86.1725C195.96 84.177 200.002 78.8039 200.002 72.502C200.002 64.5056 193.496 58 185.5 58C177.504 58 170.998 64.5056 170.998 72.502C170.998 78.8039 175.04 84.177 180.666 86.1725V97.2162C154.936 99.546 134.437 120.279 132.48 146.114C126.774 148.065 122.658 153.477 122.658 159.836C122.658 161.53 122.953 163.157 123.49 164.67H122.336C111.674 164.67 103 173.344 103 184.006C103 191.147 106.894 197.392 112.668 200.74V218.166C112.668 220.836 114.832 223 117.502 223C122.051 223 247.654 223 253.498 223C256.168 223 258.332 220.836 258.332 218.166V200.74C264.106 197.392 268 191.147 268 184.006C268 173.344 259.326 164.67 248.664 164.67ZM185.5 67.668C188.165 67.668 190.334 69.8365 190.334 72.502C190.334 75.1674 188.165 77.3359 185.5 77.3359C182.835 77.3359 180.666 75.1674 180.666 72.502C180.666 69.8365 182.835 67.668 185.5 67.668ZM185.5 106.662C207.855 106.662 226.323 123.612 228.736 145.334H142.264C144.677 123.612 163.145 106.662 185.5 106.662ZM132.326 213.332H122.336V203.342H132.326V213.332ZM132.326 193.674H122.336C117.005 193.674 112.668 189.337 112.668 184.006C112.668 178.675 117.005 174.338 122.336 174.338H132.326C132.326 180.089 132.326 187.802 132.326 193.674ZM209.67 213.332H161.33V203.342H209.67V213.332ZM229.006 213.332H219.338V198.508C219.338 195.838 217.174 193.674 214.504 193.674H156.496C153.826 193.674 151.662 195.838 151.662 198.508V213.332H141.994C141.994 205.492 141.994 187.504 141.994 174.338H229.006C229.006 187.451 229.006 205.431 229.006 213.332ZM233.84 164.67H137.16C134.495 164.67 132.326 162.501 132.326 159.836C132.326 157.17 134.495 155.002 137.16 155.002H233.84C236.505 155.002 238.674 157.17 238.674 159.836C238.674 162.501 236.505 164.67 233.84 164.67ZM248.664 213.332H238.674V203.342H248.664V213.332ZM248.664 193.674H238.674C238.674 187.8 238.674 180.089 238.674 174.338H248.664C253.995 174.338 258.332 178.675 258.332 184.006C258.332 189.337 253.995 193.674 248.664 193.674Z" fill="white"/>
<path d="M173.72 277.211C173.72 273.907 173.492 271.515 173.036 270.034C172.58 268.552 172.352 267.185 172.352 265.932C172.352 264.223 173.207 262.856 174.916 261.83C176.739 260.691 178.904 260.121 181.41 260.121C187.221 260.121 191.835 261.66 195.253 264.736C198.671 267.698 200.38 271.287 200.38 275.502V355.654C200.494 359.299 200.779 362.66 201.234 365.737C201.804 368.813 202.715 371.433 203.969 373.598C205.222 375.763 206.931 377.472 209.096 378.725C211.26 379.864 214.051 380.434 217.469 380.434C220.773 380.434 223.508 379.807 225.672 378.554C227.951 377.187 229.774 375.364 231.141 373.085C232.508 370.807 233.477 368.186 234.046 365.224C234.616 362.148 234.901 358.958 234.901 355.654V277.211C234.901 273.907 234.673 271.515 234.217 270.034C233.762 268.552 233.534 267.185 233.534 265.932C233.534 264.223 234.445 262.856 236.268 261.83C238.091 260.691 240.256 260.121 242.762 260.121C248.573 260.121 253.13 261.66 256.434 264.736C259.852 267.698 261.561 271.287 261.561 275.502V355.654C261.561 361.122 260.991 366.705 259.852 372.402C258.827 377.984 256.776 383.111 253.7 387.783C250.624 392.34 246.294 396.1 240.712 399.062C235.129 402.024 227.837 403.505 218.837 403.505C215.077 403.505 211.545 403.049 208.241 402.138C204.937 401.227 201.918 399.973 199.184 398.378C196.449 396.897 194.057 395.188 192.006 393.251C189.955 391.201 188.303 389.036 187.05 386.757C185.91 389.036 184.201 391.201 181.923 393.251C179.758 395.188 177.252 396.897 174.403 398.378C171.555 399.973 168.479 401.227 165.175 402.138C161.871 403.049 158.567 403.505 155.263 403.505C148.769 403.505 143.186 402.765 138.515 401.284C133.957 399.802 130.084 397.752 126.894 395.131C123.703 392.625 121.14 389.719 119.203 386.415C117.38 383.111 115.956 379.693 114.931 376.161C113.905 372.63 113.222 369.041 112.88 365.395C112.652 361.749 112.538 358.388 112.538 355.312V277.211C112.538 273.907 112.253 271.515 111.684 270.034C111.228 268.552 111 267.185 111 265.932C111 264.223 111.911 262.856 113.734 261.83C115.557 260.691 117.722 260.121 120.229 260.121C126.039 260.121 130.596 261.66 133.9 264.736C137.318 267.698 139.027 271.287 139.027 275.502V355.654C139.027 358.73 139.198 361.806 139.54 364.882C139.996 367.844 140.793 370.465 141.933 372.743C143.186 375.022 144.952 376.902 147.23 378.383C149.509 379.75 152.528 380.434 156.288 380.434C159.592 380.434 162.326 379.807 164.491 378.554C166.77 377.187 168.593 375.364 169.96 373.085C171.327 370.807 172.296 368.186 172.865 365.224C173.435 362.148 173.72 358.958 173.72 355.654V277.211ZM324.964 304.555C324.964 297.491 325.705 291.396 327.186 286.269C328.781 281.028 330.946 276.756 333.68 273.452C336.415 270.034 339.548 267.527 343.08 265.932C346.726 264.337 350.599 263.539 354.701 263.539C359.372 263.539 363.929 264.679 368.373 266.957C372.816 269.236 376.747 272.711 380.165 277.382C383.697 282.053 386.488 287.978 388.539 295.156C390.703 302.333 391.786 310.821 391.786 320.619C391.786 327.455 391.33 334.291 390.419 341.127C389.621 347.849 388.311 354.286 386.488 360.439C387.741 360.895 388.937 361.179 390.077 361.293C391.33 361.293 392.583 361.293 393.837 361.293C397.596 361.293 400.9 360.61 403.749 359.243C406.711 357.875 409.217 356.052 411.268 353.774C413.433 351.495 415.142 348.818 416.395 345.742C417.648 342.665 418.56 339.418 419.129 336C419.357 334.633 420.098 333.494 421.351 332.582C422.718 331.671 424.256 331.044 425.965 330.702C427.674 330.361 429.44 330.361 431.263 330.702C433.2 331.044 434.852 331.842 436.219 333.095C437.587 334.234 438.555 335.886 439.125 338.051C439.808 340.102 439.808 342.779 439.125 346.083C438.099 350.868 436.39 355.369 433.998 359.584C431.719 363.686 428.814 367.332 425.282 370.522C421.75 373.712 417.591 376.218 412.806 378.041C408.021 379.864 402.666 380.776 396.742 380.776C393.552 380.776 390.476 380.605 387.513 380.263C384.551 379.921 381.646 379.295 378.797 378.383C374.468 385.903 368.828 391.941 361.879 396.498C354.929 401.17 346.327 403.505 336.073 403.505C327.984 403.505 320.863 402.081 314.711 399.233C308.672 396.384 303.545 392.397 299.33 387.27C295.228 382.029 292.095 375.82 289.93 368.642C287.879 361.464 286.854 353.603 286.854 345.058V178.09C286.854 175.583 286.626 173.589 286.171 172.108C285.829 170.627 285.43 169.488 284.974 168.69C284.632 167.779 284.234 167.095 283.778 166.64C283.436 166.07 283.265 165.5 283.265 164.931C283.265 164.247 283.607 163.677 284.291 163.222C284.974 162.766 285.886 162.367 287.025 162.025C288.164 161.684 289.361 161.456 290.614 161.342C291.981 161.114 293.291 161 294.545 161C300.355 161 304.912 162.538 308.216 165.614C311.634 168.577 313.343 172.165 313.343 176.381V340.273C313.343 346.083 313.856 351.438 314.881 356.337C315.907 361.236 317.445 365.509 319.496 369.155C321.546 372.687 324.11 375.478 327.186 377.529C330.376 379.465 334.079 380.434 338.295 380.434C342.624 380.434 346.327 379.352 349.403 377.187C352.479 374.908 355.043 371.889 357.093 368.129C352.08 364.597 347.58 360.496 343.592 355.825C339.719 351.039 336.358 345.912 333.509 340.444C330.775 334.861 328.667 329.05 327.186 323.012C325.705 316.86 324.964 310.707 324.964 304.555ZM346.669 303.188C346.669 311.619 348.15 319.594 351.112 327.114C354.188 334.633 358.29 341.127 363.417 346.596C364.1 342.494 364.556 338.45 364.784 334.462C365.012 330.361 365.126 326.658 365.126 323.354C365.126 311.619 363.872 302.561 361.366 296.181C358.973 289.801 356.182 286.611 352.992 286.611C350.713 286.611 349.061 288.149 348.036 291.225C347.124 294.187 346.669 298.175 346.669 303.188Z" fill="white"/>
</g>
<defs>
<clipPath id="clip0">
<rect width="510" height="511" fill="white"/>
</clipPath>
</defs>
</svg>
