<svg
  width="512"
  height="512"
  viewBox="0 0 512 512"
  fill="none"
  xmlns="http://www.w3.org/2000/svg"
>
  <path fill="#fff" d="M0 0h512v512H0z" />
  <path
    d="M135.412 460.616c-14.524-14.249-42.494-49.362-30.237-69.791 1.233-2.055 23.632-26.42 26.921-29.709-6.029 8.084-2.439 41.132 30.856 71.961 30.828 33.294 63.848 36.856 71.932 30.828-3.288 3.288-27.654 25.687-29.709 26.92-20.429 12.257-55.514-15.685-69.763-30.209Z"
    fill="#E2E2E2"
  />
  <path
    d="M199.106 207.275c-.334 2.603-.703 5.479 2.642 10.044 1.051 1.434 15.663 15.863 36.19 35.841l.005.005-.005-.005c-22.033 22.888-42.877 44.662-59.46 61.985a19852.332 19852.332 0 0 1-23.547 24.575l-.001.001a11016.63 11016.63 0 0 1-12.568 13.073c-.986.987-1.848 1.577-2.67 1.851-2.26 1.439-3.492 2.261-4.93 3.7-1.15 1.151-2.259 2.398-2.465 2.878-6.025 8.085-3.874 40.112 30.811 71.944 30.811 33.301 63.813 36.864 71.892 30.834.479-.206 1.726-1.316 2.876-2.467 1.438-1.439 2.259-2.672 3.697-4.933.274-.822.863-1.685 1.849-2.672.182-.181 5.532-5.295 14.541-13.907l.083-.08c8.08-7.723 19.03-18.298 31.817-30.648 16.099-15.549 35.111-33.91 54.975-52.935 12.228-12.448 32.758-31.6 53.455-50.908 17.099-15.951 34.312-32.009 47.054-44.482 2.611-2.557 4.648-5.193 4.648-7.518 0-2.035-2.228-4.698-4.648-7.228-62.337-65.17-130.559-136.262-133.882-138.701-4.562-3.348-7.435-2.978-10.036-2.644-.913.117-1.793.23-2.7.177-.678-.04-1.381.052-2.145.152-3.169.416-7.412.973-15.52-7.14l-5.956-5.962-2.055-1.233-1.232.411c-5.094 9.374-29.442 33.849-41.081 45.223-11.366 11.648-35.823 36.013-45.19 41.111l-.41 1.233.821 1.645 6.338 6.401c8.108 8.114 7.552 12.36 7.137 15.53-.101.766-.193 1.469-.153 2.148.054.908-.059 1.788-.177 2.701Z"
    fill="#435442"
  />
  <path
    d="m185.99 177.57-14.181-14.592-.205-1.439.822-1.644 82.208-82.208 1.644-.822 1.439.205 14.592 14.181c-5.097 9.372-29.458 33.843-41.104 45.215-11.372 11.646-35.843 36.007-45.215 41.104Z"
    fill="#1A2A22"
  />
  <path
    d="m172.332 159.989-66.735-70.681c-1.919-2.33-4.604-8.632 0-15.209 4.603-6.577 22.095-24.706 30.247-32.995 8.289-8.152 26.324-25.55 32.901-30.153 6.576-4.604 12.879-1.918 15.208 0l70.682 66.736-82.303 82.302Z"
    fill="#E2E2E2"
  />
</svg>
